<svg id="visual" viewBox="0 0 960 540" width="960" height="540" xmlns="http://www.w3.org/2000/svg" xmlns:xlink="http://www.w3.org/1999/xlink" version="1.1"><rect x="0" y="0" width="960" height="540" fill="#14121c"></rect><path d="M0 305L22.8 309C45.7 313 91.3 321 137 333.8C182.7 346.7 228.3 364.3 274 365.3C319.7 366.3 365.3 350.7 411.2 339.2C457 327.7 503 320.3 548.8 321.8C594.7 323.3 640.3 333.7 686 344.2C731.7 354.7 777.3 365.3 823 362.5C868.7 359.7 914.3 343.3 937.2 335.2L960 327L960 541L937.2 541C914.3 541 868.7 541 823 541C777.3 541 731.7 541 686 541C640.3 541 594.7 541 548.8 541C503 541 457 541 411.2 541C365.3 541 319.7 541 274 541C228.3 541 182.7 541 137 541C91.3 541 45.7 541 22.8 541L0 541Z" fill="#121246"></path><path d="M0 386L22.8 380.2C45.7 374.3 91.3 362.7 137 354.7C182.7 346.7 228.3 342.3 274 345.7C319.7 349 365.3 360 411.2 359.2C457 358.3 503 345.7 548.8 355.5C594.7 365.3 640.3 397.7 686 407.3C731.7 417 777.3 404 823 403.7C868.7 403.3 914.3 415.7 937.2 421.8L960 428L960 541L937.2 541C914.3 541 868.7 541 823 541C777.3 541 731.7 541 686 541C640.3 541 594.7 541 548.8 541C503 541 457 541 411.2 541C365.3 541 319.7 541 274 541C228.3 541 182.7 541 137 541C91.3 541 45.7 541 22.8 541L0 541Z" fill="#085089"></path><path d="M0 388L22.8 396C45.7 404 91.3 420 137 419.7C182.7 419.3 228.3 402.7 274 406.7C319.7 410.7 365.3 435.3 411.2 451.7C457 468 503 476 548.8 472C594.7 468 640.3 452 686 436.2C731.7 420.3 777.3 404.7 823 400C868.7 395.3 914.3 401.7 937.2 404.8L960 408L960 541L937.2 541C914.3 541 868.7 541 823 541C777.3 541 731.7 541 686 541C640.3 541 594.7 541 548.8 541C503 541 457 541 411.2 541C365.3 541 319.7 541 274 541C228.3 541 182.7 541 137 541C91.3 541 45.7 541 22.8 541L0 541Z" fill="#0093c4"></path><path d="M0 510L22.8 508.3C45.7 506.7 91.3 503.3 137 506.8C182.7 510.3 228.3 520.7 274 515.8C319.7 511 365.3 491 411.2 481.3C457 471.7 503 472.3 548.8 479.2C594.7 486 640.3 499 686 505.3C731.7 511.7 777.3 511.3 823 511.5C868.7 511.7 914.3 512.3 937.2 512.7L960 513L960 541L937.2 541C914.3 541 868.7 541 823 541C777.3 541 731.7 541 686 541C640.3 541 594.7 541 548.8 541C503 541 457 541 411.2 541C365.3 541 319.7 541 274 541C228.3 541 182.7 541 137 541C91.3 541 45.7 541 22.8 541L0 541Z" fill="#3edaef"></path></svg>